<svg xmlns="http://www.w3.org/2000/svg" width="284" height="100" viewBox="0 0 284 100">
  <path fill="#1A4964" fill-rule="evenodd" d="M283.295966,1567.79529 C265.632522,1563.40505 255.712369,1553.42541 253.535507,1537.85637 C250.270214,1514.50281 241.027385,1488.3363 223.994147,1488.3363 C206.960909,1488.3363 201.905713,1519.92907 198.347109,1537.85637 C195.974706,1549.80791 193.315472,1545.26866 190.369405,1524.23862 C187.42216,1489.48539 179.076344,1470.975 165.331958,1468.70743 C151.587572,1466.43987 142.197499,1484.95026 137.161739,1524.23862 C132.286181,1541.20824 126.261527,1549.69306 119.087777,1549.69306 C111.914028,1549.69306 106.983695,1542.74607 104.296778,1528.85208 L54.5523018,1528.85208 C52.9974005,1539.36062 48.5111565,1545.46125 41.0935701,1547.15398 C33.6759837,1548.8467 19.978127,1549.69306 0,1549.69306 L0,1567.79529 L283.295966,1567.79529 Z" transform="translate(0 -1468)"/>
</svg>
